HIERARCHY
ROOT Hips
{
  OFFSET 3.13124 94.3669 -3.18751
  CHANNELS  6 Xposition Yposition Zposition Zrotation Xrotation Yrotation
  JOINT LeftUpLeg
  {
    OFFSET 8.64259 1.95398 -2.38835
    CHANNELS 3 Zrotation Xrotation Yrotation
    JOINT LeftLeg
    {
      OFFSET 43.7702 0 0
      CHANNELS 3 Zrotation Xrotation Yrotation
      JOINT LeftFoot
      {
        OFFSET 40.6238 0 0
        CHANNELS 3 Zrotation Xrotation Yrotation
        JOINT LeftToeBase
        {
          OFFSET 12.7242 0 0
          CHANNELS 3 Zrotation Xrotation Yrotation
          End Site
          {
            OFFSET 0 0 0
          }
        }
      }
    }
  }
  JOINT RightUpLeg
  {
    OFFSET -8.2249 1.95398 -2.59336
    CHANNELS 3 Zrotation Xrotation Yrotation
    JOINT RightLeg
    {
      OFFSET 43.5653 0 0
      CHANNELS 3 Zrotation Xrotation Yrotation
      JOINT RightFoot
      {
        OFFSET 40.6238 0 0
        CHANNELS 3 Zrotation Xrotation Yrotation
        JOINT RightToeBase
        {
          OFFSET 12.7242 0 0
          CHANNELS 3 Zrotation Xrotation Yrotation
          End Site
          {
            OFFSET 0 0 0
          }
        }
      }
    }
  }
  JOINT Spine
  {
    OFFSET 0.165834 0.87714 6.61349
    CHANNELS 3 Zrotation Xrotation Yrotation
    JOINT Spine1
    {
      OFFSET 7.38962 1.71661e-005 0
      CHANNELS 3 Zrotation Xrotation Yrotation
      JOINT Spine2
      {
        OFFSET 11.9445 1.14441e-005 0
        CHANNELS 3 Zrotation Xrotation Yrotation
        JOINT Spine3
        {
          OFFSET 14.7254 4.19617e-005 0
          CHANNELS 3 Zrotation Xrotation Yrotation
          JOINT Spine4
          {
            OFFSET 10.9679 0 0
            CHANNELS 3 Zrotation Xrotation Yrotation
            JOINT RightShoulder
            {
              OFFSET 2.46616 -1.6653 3.69651
              CHANNELS 3 Zrotation Xrotation Yrotation
              JOINT RightArm
              {
                OFFSET 13.0012 0 0
                CHANNELS 3 Zrotation Xrotation Yrotation
                JOINT RightForeArm
                {
                  OFFSET 28.7848 1.52588e-005 0
                  CHANNELS 3 Zrotation Xrotation Yrotation
                  JOINT RightHand
                  {
                    OFFSET 26.5688 1.52588e-005 0
                    CHANNELS 3 Zrotation Xrotation Yrotation
                    End Site
                    {
                      OFFSET 0 0 0
                    }
                  }
                }
              }
            }
            JOINT LeftShoulder
            {
              OFFSET 2.38034 -1.29275 -3.75231
              CHANNELS 3 Zrotation Xrotation Yrotation
              JOINT LeftArm
              {
                OFFSET 16.3182 6.10352e-005 0
                CHANNELS 3 Zrotation Xrotation Yrotation
                JOINT LeftForeArm
                {
                  OFFSET 27.0901 0 0
                  CHANNELS 3 Zrotation Xrotation Yrotation
                  JOINT LeftHand
                  {
                    OFFSET 24.5451 1.52588e-005 0
                    CHANNELS 3 Zrotation Xrotation Yrotation
                    End Site
                    {
                      OFFSET 0 0 0
                    }
                  }
                }
              }
            }
            JOINT Neck
            {
              OFFSET 5.0226 -0.0266342 0
              CHANNELS 3 Zrotation Xrotation Yrotation
              JOINT Head
              {
                OFFSET 6.69363 2.86102e-005 0
                CHANNELS 3 Zrotation Xrotation Yrotation
                End Site
                {
                  OFFSET 0 0 0
                }
              }
            }
          }
        }
      }
    }
  }
}
MOTION
Frames:	16
Frame Time:	0.0333333
-51.9047 91.8081 -84.7454 -80.639 45.7109 -97.3962 -177.462 25.9283 106.772 -23.6358 -45.5186 -3.85624 30.6853 -12.0964 -13.7927 28.7808 5.85108e-006 8.3626e-006 -179.394 -2.02601 90.2271 -4.43048 20.3987 1.2878 70.2525 -1.67765 -0.948137 28.7808 1.43143e-005 3.292e-005 -1.32308 6.26774 -89.5877 14.3145 -2.6624 0.117064 2.64625 -2.65467 0.234208 -19.9098 -2.57442 -0.68906 0.102831 -2.57441 -0.689061 109.141 -49.1659 -71.0379 17.3366 19.4509 -7.20796 -36.8031 -53.716 -41.8043 4.9645 0.0455404 -1.79353 -91.3107 -39.4543 73.9873 -33.9683 -39.0227 -22.3252 -145.067 -14.867 -178.886 78.583 20.083 19.1746 -3.01518 8.23659 0.678156 0.0142254 8.25426 10.113 
-52.4477 91.8403 -84.1786 -80.3025 50.4641 -97.2841 -177.464 24.6742 108.136 -26.1648 -47.8445 -4.21779 32.017 -14.2043 -15.5666 28.7808 5.85108e-006 8.3626e-006 -179.366 -2.15993 90.346 -4.42689 19.137 1.19689 69.8245 -1.97569 -1.09406 28.7808 1.43143e-005 3.292e-005 -1.63995 6.24707 -89.5181 14.3591 -3.2644 0.338648 2.69219 -3.24633 0.482139 -19.8751 -3.21508 -0.659145 0.137509 -3.2151 -0.659151 110.644 -46.7211 -68.2811 11.4835 23.0937 -11.5803 -25.1346 -44.5632 -32.1913 6.07596 0.162535 -1.76835 -91.2747 -37.9833 73.6048 -33.4988 -33.7456 -27.86 -149.683 8.34794 -179.934 65.9953 4.75437 1.96581 -3.6513 10.5952 -1.39914 -1.59412 10.6996 11.3392 
-52.594 91.8521 -83.7656 -82.6934 54.7512 -95.4798 -177.481 22.2614 108.846 -28.8621 -51.6253 -4.85299 32.1232 -15.6288 -16.9636 28.7808 5.85108e-006 8.3626e-006 179.951 -3.73106 89.3769 -4.26889 14.9191 0.907936 69.912 -0.67895 -0.441892 28.7808 1.43143e-005 3.292e-005 -1.84908 6.33289 -89.4776 14.2011 -3.64685 0.761466 2.53498 -3.6098 0.921425 -20.0413 -3.70687 -0.371299 -0.0285965 -3.70688 -0.371308 109.669 -42.2836 -69.1459 6.16838 26.6485 -11.1076 -28.9408 -46.1442 -36.1102 12.6414 0.198466 -3.49981 -91.1937 -37.5249 73.6025 -28.5719 -26.1367 -33.8605 -162.388 5.99904 -175.15 9.12581 -3.22481 -31.3258 -6.02163 12.9692 -2.48831 -2.28976 13.0951 12.2288 
-52.4016 91.9347 -83.6407 -83.7174 58.1999 -95.1796 -177.218 19.88 108.784 -29.1104 -55.7312 -5.66556 31.8096 -15.7145 -17.1564 28.7808 5.85108e-006 8.3626e-006 179.101 -3.90096 88.3019 -4.56346 12.6383 0.759375 70.0046 -0.129856 -0.165146 28.7808 1.43143e-005 3.292e-005 -1.9581 6.27379 -89.5249 14.3484 -3.77716 1.3047 2.68215 -3.71606 1.46985 -19.8969 -3.99439 0.10746 0.115727 -3.99438 0.107456 108.129 -37.4778 -71.0946 -0.0727881 26.858 -16.1106 -8.19643 -39.3181 -10.1689 0.0140351 -0.104434 -12.9212 -91.1184 -37.4993 73.7241 -23.3176 -21.2265 -38.0623 -176.75 16.4535 -165.429 -9.88919 2.53024 -43.0703 -8.55797 14.9378 -3.0823 -3.04232 15.0107 12.8596 
-52.3654 92.0272 -83.4534 -84.4816 60.2548 -94.4664 -177.566 19.6037 109.52 -31.621 -57.7123 -6.03949 29.149 -17.5444 -19.9557 28.7808 5.85108e-006 8.3626e-006 178.796 -3.9493 87.9501 -4.88347 11.9154 0.712846 69.6551 0.0777566 -0.0504466 28.7808 1.43143e-005 3.292e-005 -2.12048 6.20158 -89.524 14.5138 -4.03978 1.67823 2.84781 -3.96202 1.8546 -19.7369 -4.35707 0.384441 0.275772 -4.35707 0.384433 107.112 -33.1917 -72.3852 -3.91426 28.1011 -18.3609 -4.29359 -25.0639 -4.88195 -2.37043 0.0182143 -7.85448 -91.2641 -37.7005 73.5358 -18.7526 -17.926 -41.1561 162.859 47.3615 -154.207 2.07544 -0.961172 -26.5899 -10.9118 16.7362 -3.73127 -3.87898 16.7201 14.3938 
-52.105 92.0746 -83.5594 -84.0904 62.4026 -94.9612 -177.753 19.6842 110.366 -33.6656 -58.3981 -6.24854 26.0229 -18.0487 -21.6828 28.7808 5.85108e-006 8.3626e-006 178.716 -3.78728 87.6596 -4.51178 10.7586 0.639982 69.5942 0.556348 0.191493 28.7808 1.43143e-005 3.292e-005 -2.18404 6.06152 -89.2739 14.785 -4.09974 1.86665 3.11893 -4.01363 2.04548 -19.4666 -4.47088 0.546062 0.546062 -4.47087 0.546062 106.362 -28.7812 -73.2882 -8.89156 29.7978 -15.738 -4.10732 -19.7914 -4.94748 -3.11889 0.0401029 -8.29976 -92.2049 -38.7586 72.2676 -17.9274 -15.493 -42.029 68.9041 65.3146 -76.0946 7.2933 -0.635462 -7.35607 -12.8197 18.3063 -3.39314 -4.89072 18.1262 15.7069 
-51.9324 92.0301 -83.8161 -84.6526 64.3862 -94.9433 -178.092 19.6971 110.974 -36.0893 -58.4838 -6.29251 22.4285 -17.7896 -22.8413 28.7808 5.85108e-006 8.3626e-006 178.467 -4.19633 87.0549 -4.10014 9.87947 0.585708 70.0631 1.54046 0.666861 28.7808 1.43143e-005 3.292e-005 -2.26933 5.99976 -88.9865 14.8983 -4.20007 2.09893 3.23213 -4.10362 2.28192 -19.3549 -4.63634 0.737329 0.657715 -4.63634 0.737333 105.881 -25.5532 -73.8811 -14.1876 31.3832 -13.1185 -3.77954 -12.1973 -4.89756 -0.233147 -0.0464754 -11.2978 -93.5086 -40.1219 70.5374 -19.9542 -12.0395 -43.4051 19.3312 17.2505 -45.6152 -48.5271 3.41061 -8.69722 -13.4213 19.9867 -2.63869 -6.45701 19.5704 16.8216 
-51.9366 92.1567 -84.1747 -86.3779 66.1979 -93.7153 -178.619 19.4745 111.566 -38.4734 -59.7094 -6.48154 18.1118 -16.1068 -22.6278 28.7808 5.85108e-006 8.3626e-006 177.948 -4.66365 86.4971 -4.71352 9.00433 0.531676 69.7534 1.06147 0.442908 28.7808 1.43143e-005 3.292e-005 -2.30215 6.02524 -89.1991 14.8751 -4.25651 2.28251 3.20876 -4.15195 2.4678 -19.3788 -4.74533 0.895428 0.633891 -4.74533 0.89543 105.67 -21.6527 -73.8247 -17.6046 32.3462 -11.6181 -3.27314 0.0399087 -4.88799 4.72277 -0.302158 -11.0312 -95.0535 -42.2933 68.7659 -26.0526 -7.85221 -47.2433 -164.237 0.741326 -124.476 42.6495 -37.6099 -79.2224 -13.8934 21.6257 -0.353344 -6.6621 21.1497 16.8542 
-52.0016 92.1629 -84.5203 -88.4142 67.7178 -92.3901 -178.957 19.0666 111.654 -40.803 -62.0039 -7.1477 14.52 -15.06 -22.7969 28.7808 5.85108e-006 8.3626e-006 177.389 -5.38378 85.6564 -4.84093 7.85117 0.461747 69.9252 1.53507 0.675545 28.7808 1.43143e-005 3.292e-005 -2.3584 6.11153 -89.2058 14.713 -4.34098 2.43204 3.04672 -4.22978 2.62091 -19.5422 -4.87081 1.01257 0.470473 -4.87082 1.01256 105.941 -19.019 -72.753 -20.7517 33.5787 -10.7899 -2.34111 18.2889 -5.5693 13.746 -0.554575 -9.29361 -96.4847 -43.7327 67.009 -30.5195 -3.53482 -51.6895 177.934 16.8383 -115.818 42.6192 -14.0847 -37.7666 -13.3886 23.2605 1.41803 -6.31934 22.7515 17.6145 
-52.1244 92.1548 -84.8343 -88.373 68.7034 -92.4537 -179.393 19.6563 112.011 -42.8802 -64.3397 -7.93358 12.4926 -13.774 -21.9058 28.7808 5.85108e-006 8.3626e-006 177.17 -5.2209 85.4051 -5.10935 7.37693 0.432805 69.3917 2.04273 0.956727 28.7808 1.43143e-005 3.292e-005 -2.44463 6.17127 -89.386 14.6087 -4.54244 2.38214 2.94313 -4.43322 2.57996 -19.6521 -5.04793 0.904004 0.360589 -5.04791 0.903995 106.386 -16.6638 -71.1742 -21.8222 37.1272 -5.44417 6.66807 34.1305 -19.9761 17.7493 0.183888 -3.74091 -97.7581 -43.7814 65.0403 -32.5589 1.44126 -55.1984 -132.479 -3.84054 -113.462 26.5198 5.74223 15.3287 -12.4976 24.7895 3.55323 -5.30582 24.2821 18.4386 
-52.3131 92.1725 -85.1017 -86.0686 69.2108 -94.6416 -179.753 20.8056 112.113 -44.3607 -66.7184 -8.93788 11.8127 -12.3465 -20.173 28.7808 5.85108e-006 8.3626e-006 177.039 -4.22002 85.1907 -5.39235 7.21266 0.422028 68.2709 2.58606 1.29223 28.7808 1.43143e-005 3.292e-005 -2.57336 6.1529 -89.5609 14.6588 -4.85755 2.25933 2.99461 -4.75344 2.47124 -19.6111 -5.31146 0.691407 0.401583 -5.31145 0.691413 106.767 -14.8601 -69.7518 -22.2179 38.6887 -3.03347 20.5847 49.0573 -33.0301 21.3493 -0.0212339 -5.04639 -98.382 -42.9959 63.7626 -34.1059 5.85282 -57.9783 -69.1927 -19.631 -89.3044 -20.4378 -0.271174 -4.39093 -11.7221 26.0163 5.95054 -4.1599 25.501 19.1601 
-52.5659 92.3292 -85.3694 -83.156 69.4793 -97.2098 179.946 21.7413 112.313 -44.8252 -67.9705 -9.42937 11.3573 -11.3888 -18.9993 28.7808 5.85108e-006 8.3626e-006 176.988 -2.46428 85.2886 -6.96727 7.9761 0.4651 66.8118 1.49002 0.795937 28.7808 1.43143e-005 3.292e-005 -2.67445 6.1024 -89.9311 14.7939 -5.13681 2.19341 3.1309 -5.03532 2.41776 -19.4842 -5.55788 0.543907 0.528474 -5.55789 0.543886 107.293 -14.5037 -68.2428 -22.0774 40.0246 -1.25875 40.5159 57.3943 -51.4165 25.2693 -0.606793 -7.61975 -98.1354 -41.2381 63.4449 -36.1442 7.93637 -60.7426 -60.8357 -20.4387 -85.8456 -30.0269 2.53836 -15.1689 -10.8074 26.9471 7.20505 -3.78858 26.3256 20.3028 
-52.7748 92.0728 -85.5897 -80.8414 69.6903 -99.952 179.636 22.9522 111.916 -46.518 -68.699 -9.98582 11.1341 -11.0285 -18.5335 28.7808 5.85108e-006 8.3626e-006 176.809 -2.55812 84.6281 -5.19602 7.98019 0.468069 67.7035 2.84947 1.45949 28.7808 1.43143e-005 3.292e-005 -2.76883 6.03531 -89.5689 14.8965 -5.28542 2.21608 3.23404 -5.18277 2.44699 -19.386 -5.70637 0.520468 0.626701 -5.70638 0.520461 108.042 -16.3181 -66.7991 -22.666 41.6233 0.432233 61.7283 59.5619 -70.8592 28.524 -0.83211 -8.18277 -97.5737 -38.7402 63.3198 -36.4475 7.75128 -62.8059 -64.5528 -19.8382 -87.8781 -28.4812 2.60262 -15.9369 -9.84503 27.4406 6.48204 -4.06733 26.6898 22.2934 
-53.3156 92.1877 -85.9131 -81.3953 69.3072 -99.2576 179.505 23.0191 111.76 -47.2652 -69.6179 -10.4638 11.5973 -11.017 -18.3531 28.7808 5.85108e-006 8.3626e-006 176.657 -2.72871 84.4984 -5.74378 7.59751 0.444143 66.5406 3.38477 1.81705 28.7808 1.43143e-005 3.292e-005 -2.80196 6.10243 -89.7159 14.7808 -5.37121 2.24439 3.11856 -5.26724 2.47908 -19.5042 -5.79669 0.521449 0.508415 -5.79668 0.521452 109.001 -18.7352 -65.1319 -22.4337 42.4044 1.26565 77.5509 59.0347 -84.9039 30.1883 -1.31805 -9.7731 -96.9451 -36.8531 63.5638 -35.5091 6.14224 -64.263 -68.3021 -19.913 -89.8903 -27.1519 1.68308 -12.4477 -8.60671 27.5945 4.90609 -4.8725 26.6609 24.2978 
-53.7945 92.005 -86.1215 -80.646 68.3913 -99.969 179.204 24.1666 111.37 -48.8894 -70.6257 -11.1962 12.6363 -11.4783 -18.6103 28.7808 5.85108e-006 8.3626e-006 176.767 -2.90545 84.4646 -5.23906 10.3337 0.61225 67.3482 3.55924 1.85097 28.7808 1.43143e-005 3.292e-005 -2.78815 6.10787 -89.5703 14.7501 -5.34698 2.17883 3.08798 -5.24593 2.41253 -19.5343 -5.75388 0.466254 0.478362 -5.75388 0.466246 109.889 -21.0232 -63.7365 -21.604 42.2967 2.39153 88.3738 57.6104 -94.2052 31.025 -1.61854 -10.701 -96.477 -35.8907 63.944 -33.9224 3.66844 -64.5204 -65.7628 -19.7108 -88.2207 -23.5924 1.87405 -14.8259 -7.54359 27.4858 3.63141 -5.35024 26.4487 25.548 
-54.4732 91.9236 -86.3085 -80.4008 66.8152 -99.7826 178.886 25.4429 111.028 -49.8136 -71.2256 -11.6015 15.0214 -11.6934 -18.0464 28.7808 5.85108e-006 8.3626e-006 176.909 -2.98128 84.6935 -5.46322 12.2554 0.733464 67.12 3.60196 1.88675 28.7808 1.43143e-005 3.292e-005 -2.74662 6.13988 -89.69 14.6862 -5.32499 2.02099 3.02424 -5.23089 2.25387 -19.5979 -5.68547 0.322348 0.414771 -5.68547 0.322341 110.602 -23.1976 -62.8134 -20.1154 41.5159 3.0929 94.8553 56.5989 -99.6319 30.8855 -1.63454 -10.7918 -95.9862 -35.5829 64.6526 -32.5559 0.761833 -63.6595 -67.8383 -19.8779 -88.1196 -20.6634 2.01964 -17.4412 -6.55324 27.3949 2.64102 -6.11322 26.2041 26.4365 
